<?xml version="1.0" encoding="utf-8"?>
<!-- Generator: Adobe Illustrator 21.0.2, SVG Export Plug-In . SVG Version: 6.00 Build 0)  -->
<svg version="1.1" id="レイヤー_2" xmlns="http://www.w3.org/2000/svg" xmlns:xlink="http://www.w3.org/1999/xlink" x="0px"
	 y="0px" viewBox="0 0 314.3 60.5" style="enable-background:new 0 0 314.3 60.5;" xml:space="preserve">
<g>
	<path d="M38.5,6.6v10h-3.6c-0.6-2.1-1.3-3.8-2.2-5c-0.9-1.2-1.9-2.1-3.1-2.7c-1.2-0.5-2.6-0.8-4.3-0.8c-2.5,0-4.7,0.8-6.6,2.5
		c-1.9,1.7-3.5,4.1-4.6,7.4c-1.1,3.3-1.7,7.3-1.7,12c0,4.7,0.5,8.8,1.4,12.1c0.9,3.3,2.3,5.9,4,7.6c1.8,1.7,4,2.5,6.6,2.5
		c2,0,3.6-0.3,4.8-0.8c1.3-0.6,2.3-1.5,3.2-2.7c0.9-1.2,1.7-3,2.4-5.4h3.6v10.3c-2.3,0.6-4.6,1.1-7,1.4c-2.4,0.3-5,0.5-7.8,0.5
		c-6.1,0-10.7-2.1-13.9-6.2c-3.1-4.1-4.7-10.3-4.7-18.5c0-5.2,0.8-9.7,2.4-13.5c1.6-3.9,4-6.9,7.2-9C17.9,6.1,21.7,5,26,5
		c2.2,0,4.2,0.1,6.1,0.3C34,5.6,36.1,6,38.5,6.6z"/>
	<path d="M80.1,54.9v-1.8c1.2-0.2,2.1-0.5,2.7-0.8c0.6-0.3,1-0.7,1.3-1.2c0.3-0.5,0.4-1.2,0.4-2.1c0-0.8-0.1-1.7-0.3-2.7
		c-0.2-1-0.5-2-0.8-3.2l-1.3-4.7H65.2L64,42.1c-0.6,1.8-1,3.1-1.2,4c-0.2,0.9-0.3,1.7-0.3,2.5c0,1.4,0.4,2.5,1.1,3.2
		c0.7,0.7,1.9,1.1,3.4,1.3v1.8H51.5v-1.8c1.3-0.2,2.5-1,3.5-2.3c1-1.3,2-3.3,2.9-5.8L73,5h5.7L91,45.3c0.6,1.9,1.1,3.3,1.5,4.3
		c0.4,1,1,1.8,1.6,2.3c0.6,0.6,1.5,1,2.6,1.2v1.8H80.1z M66.2,35.4h15.1l-6.9-23.3L66.2,35.4z"/>
	<path d="M139.7,35.3c0.9,1.4,1.6,2.7,2.2,3.8c0.6,1.1,1.2,2.3,1.8,3.6h0.5c-0.1-1.5-0.2-4.4-0.3-8.8c-0.1-4.4-0.1-8.3-0.1-11.8
		v-7.6c0-1.7,0-2.9-0.1-3.6c-0.1-0.8-0.3-1.4-0.5-1.8c-0.3-0.4-0.6-0.7-1-1c-0.4-0.3-1.2-0.5-2.3-0.8V5.6h13v1.8
		c-1.1,0.3-1.8,0.6-2.3,0.8c-0.4,0.2-0.8,0.6-1.1,0.9c-0.3,0.4-0.5,1-0.6,1.7c-0.1,0.8-0.2,2-0.2,3.8v40.5h-4.5l-20.1-33.7
		c-1.3-2.1-2.1-3.6-2.7-4.6c-0.5-1-1-1.9-1.5-2.9H119c0.2,1.9,0.3,5.2,0.4,10.1c0.1,4.9,0.1,9.7,0.1,14.5v7.4c0,1.6,0.1,2.8,0.2,3.5
		c0.1,0.7,0.3,1.3,0.5,1.8c0.3,0.4,0.6,0.8,1.1,1.1c0.5,0.3,1.3,0.6,2.4,0.9v1.8h-13.2v-1.8c1.5-0.4,2.5-0.8,3-1.3
		c0.5-0.5,0.8-1.1,1-2c0.2-0.9,0.2-2.2,0.2-4V14.6c0-1.7-0.1-2.9-0.2-3.6c-0.1-0.8-0.3-1.3-0.6-1.8c-0.3-0.4-0.6-0.8-1.1-1
		c-0.5-0.3-1.2-0.5-2.3-0.8V5.6h11.3L139.7,35.3z"/>
	<path d="M203.2,6.6v10h-3.6c-0.6-2.1-1.3-3.8-2.2-5c-0.9-1.2-1.9-2.1-3.1-2.7c-1.2-0.5-2.6-0.8-4.3-0.8c-2.5,0-4.7,0.8-6.6,2.5
		c-1.9,1.7-3.5,4.1-4.6,7.4c-1.1,3.3-1.7,7.3-1.7,12c0,4.7,0.5,8.8,1.4,12.1c0.9,3.3,2.3,5.9,4,7.6c1.8,1.7,4,2.5,6.6,2.5
		c2,0,3.6-0.3,4.8-0.8c1.3-0.6,2.3-1.5,3.2-2.7c0.9-1.2,1.7-3,2.4-5.4h3.6v10.3c-2.3,0.6-4.6,1.1-7,1.4c-2.4,0.3-5,0.5-7.8,0.5
		c-6.1,0-10.7-2.1-13.9-6.2c-3.1-4.1-4.7-10.3-4.7-18.5c0-5.2,0.8-9.7,2.4-13.5c1.6-3.9,4-6.9,7.2-9c3.2-2.1,6.9-3.2,11.3-3.2
		c2.2,0,4.2,0.1,6.1,0.3C198.7,5.6,200.8,6,203.2,6.6z"/>
	<path d="M254.2,5.6v10.9h-3.5c-0.4-1.2-0.7-2.2-1.1-3.1c-0.4-0.9-0.8-1.6-1.2-2.2c-0.4-0.6-0.9-1.1-1.4-1.4
		c-0.5-0.4-1.1-0.6-1.8-0.7c-0.7-0.1-1.5-0.2-2.4-0.2h-11.4v18.9h7.7c1.1,0,1.9-0.2,2.5-0.5c0.6-0.3,1.1-0.8,1.5-1.5
		c0.4-0.7,0.8-1.9,1.1-3.4h3.4v13.9h-3.4c-0.3-1.4-0.7-2.5-1.1-3.3c-0.4-0.7-0.9-1.3-1.5-1.6c-0.6-0.3-1.4-0.5-2.5-0.5h-7.7v20.8
		h11.2c1.2,0,2.1-0.1,2.9-0.3c0.7-0.2,1.4-0.6,1.9-1c0.5-0.5,1-1.1,1.4-1.9c0.4-0.8,0.8-1.6,1-2.5c0.3-0.9,0.7-2.1,1.1-3.7h3.6
		l-0.7,12.7h-33.5v-1.8c1.5-0.4,2.5-0.8,3-1.3c0.5-0.5,0.8-1.1,1-2c0.2-0.9,0.2-2.2,0.2-4V14.6c0-1.7-0.1-2.9-0.2-3.6
		c-0.1-0.8-0.3-1.3-0.6-1.8c-0.3-0.4-0.6-0.8-1.1-1c-0.5-0.3-1.2-0.5-2.3-0.8V5.6H254.2z"/>
	<path d="M282.9,51.6h9.5c1,0,1.9-0.1,2.6-0.2c0.7-0.1,1.3-0.3,1.8-0.6c0.5-0.3,0.9-0.6,1.3-1c0.4-0.4,0.8-1,1.1-1.8s0.7-1.6,1-2.7
		c0.3-1.1,0.7-2.7,1.2-4.9h3.6l-0.7,14.5h-32.5v-1.8c1.5-0.4,2.5-0.8,3-1.3c0.5-0.5,0.8-1.1,1-2c0.2-0.9,0.2-2.2,0.2-4V14.6
		c0-1.7-0.1-2.9-0.2-3.6c-0.1-0.8-0.3-1.3-0.6-1.8c-0.3-0.4-0.6-0.8-1.1-1c-0.5-0.3-1.2-0.5-2.3-0.8V5.6h15.2v1.8
		c-1.1,0.3-1.8,0.5-2.3,0.8c-0.4,0.2-0.8,0.5-1.1,0.9c-0.3,0.4-0.5,1-0.7,1.8s-0.2,2.1-0.2,3.8V51.6z"/>
</g>
</svg>
