<?xml version="1.0" encoding="utf-8"?>
<!-- Generator: Adobe Illustrator 21.0.2, SVG Export Plug-In . SVG Version: 6.00 Build 0)  -->
<svg version="1.1" id="レイヤー_2" xmlns="http://www.w3.org/2000/svg" xmlns:xlink="http://www.w3.org/1999/xlink" x="0px"
	 y="0px" viewBox="0 0 274.1 60.5" style="enable-background:new 0 0 274.1 60.5;" xml:space="preserve">
<g>
	<path d="M41.2,5.5v10.9h-3.5c-0.4-1.2-0.7-2.2-1.1-3.1c-0.4-0.9-0.8-1.6-1.2-2.2c-0.4-0.6-0.9-1.1-1.4-1.4
		c-0.5-0.4-1.1-0.6-1.8-0.7c-0.7-0.1-1.5-0.2-2.4-0.2H18.4v18.9h7.7c1.1,0,1.9-0.2,2.5-0.5c0.6-0.3,1.1-0.8,1.5-1.5s0.8-1.9,1.1-3.4
		h3.4v13.9h-3.4c-0.3-1.4-0.7-2.5-1.1-3.3c-0.4-0.7-0.9-1.3-1.5-1.6c-0.6-0.3-1.4-0.5-2.5-0.5h-7.7v20.8h11.2c1.2,0,2.1-0.1,2.9-0.3
		c0.7-0.2,1.4-0.6,1.9-1c0.5-0.5,1-1.1,1.4-1.9c0.4-0.8,0.8-1.6,1-2.5c0.3-0.9,0.7-2.1,1.1-3.7h3.6l-0.7,12.7H7.4V53
		c1.5-0.4,2.5-0.8,3-1.3c0.5-0.5,0.8-1.1,1-2c0.2-0.9,0.2-2.2,0.2-4V14.5c0-1.7-0.1-2.9-0.2-3.6c-0.1-0.8-0.3-1.3-0.6-1.8
		c-0.3-0.4-0.6-0.8-1.1-1C9.3,7.8,8.5,7.5,7.4,7.2V5.5H41.2z"/>
	<path d="M90.8,35.2c0.9,1.4,1.6,2.7,2.2,3.8c0.6,1.1,1.2,2.3,1.8,3.6h0.5c-0.1-1.5-0.2-4.4-0.3-8.8c-0.1-4.4-0.1-8.3-0.1-11.8v-7.6
		c0-1.7,0-2.9-0.1-3.6c-0.1-0.8-0.3-1.4-0.5-1.8c-0.3-0.4-0.6-0.7-1-1c-0.4-0.3-1.2-0.5-2.3-0.8V5.5h13v1.8
		c-1.1,0.3-1.8,0.6-2.3,0.8c-0.4,0.2-0.8,0.6-1.1,0.9c-0.3,0.4-0.5,1-0.6,1.7c-0.1,0.8-0.2,2-0.2,3.8V55H95L74.9,21.3
		c-1.3-2.1-2.1-3.6-2.7-4.6c-0.5-1-1-1.9-1.5-2.9h-0.6c0.2,1.9,0.3,5.2,0.4,10.1c0.1,4.9,0.1,9.7,0.1,14.5v7.4
		c0,1.6,0.1,2.8,0.2,3.5c0.1,0.7,0.3,1.3,0.5,1.8c0.3,0.4,0.6,0.8,1.1,1.1c0.5,0.3,1.3,0.6,2.4,0.9v1.8H61.7V53
		c1.5-0.4,2.5-0.8,3-1.3c0.5-0.5,0.8-1.1,1-2c0.2-0.9,0.2-2.2,0.2-4V14.5c0-1.7-0.1-2.9-0.2-3.6c-0.1-0.8-0.3-1.3-0.6-1.8
		c-0.3-0.4-0.6-0.8-1.1-1c-0.5-0.3-1.2-0.5-2.3-0.8V5.5H73L90.8,35.2z"/>
	<path d="M119.1,5.5h39.1V18h-3.5c-0.5-2.1-1.1-3.7-1.6-4.9c-0.5-1.2-1.1-2.1-1.6-2.7c-0.6-0.6-1.2-1.1-1.9-1.3
		c-0.7-0.3-1.7-0.4-3-0.4H142v37c0,1.4,0.1,2.6,0.2,3.4c0.2,0.8,0.4,1.5,0.7,2c0.3,0.5,0.8,0.9,1.3,1.2c0.6,0.3,1.4,0.5,2.6,0.8v1.8
		h-16.5V53c0.7-0.2,1.4-0.3,1.9-0.5c0.6-0.2,1-0.4,1.4-0.7c0.3-0.3,0.6-0.6,0.9-1.1c0.2-0.4,0.4-1,0.5-1.8c0.1-0.7,0.2-1.8,0.2-3.3
		v-37h-4.6c-1.1,0-2.1,0.1-2.8,0.3c-0.7,0.2-1.4,0.7-2,1.4c-0.6,0.7-1.2,1.7-1.7,2.9c-0.5,1.3-1,2.9-1.5,4.8h-3.6V5.5z"/>
	<path d="M184.8,33.4v12.3c0,1.7,0.1,3,0.2,3.8c0.1,0.8,0.3,1.4,0.6,1.8c0.3,0.4,0.6,0.7,1.1,1c0.5,0.3,1.2,0.5,2.3,0.8v1.8h-15.2
		V53c1.5-0.4,2.5-0.8,3-1.3c0.5-0.5,0.8-1.1,1-2c0.2-0.9,0.2-2.2,0.2-4V14.5c0-1.7-0.1-2.9-0.2-3.6c-0.1-0.8-0.3-1.3-0.6-1.8
		c-0.3-0.4-0.6-0.8-1.1-1c-0.5-0.3-1.2-0.5-2.3-0.8V5.5h17.9c5.6,0,9.9,1,12.6,3.1c2.8,2,4.2,5.2,4.2,9.5c0,3.3-0.9,6.1-2.7,8.4
		c-1.8,2.3-4.5,4.1-8.2,5.4v0.3c1.5,0.6,2.7,1.5,3.8,2.6c1,1.1,2.2,2.9,3.5,5.2l3.3,5.9c0.9,1.7,1.7,3.1,2.4,4
		c0.7,0.9,1.4,1.6,2.1,2.1c0.7,0.5,1.6,0.8,2.8,1v1.8h-10c-0.9-1.3-1.8-2.6-2.6-4.1c-0.8-1.5-1.6-3-2.4-4.5l-3.2-6
		c-1-1.8-1.8-3.2-2.4-4c-0.6-0.9-1.2-1.5-1.7-1.8c-0.5-0.3-1.1-0.6-1.7-0.7c-0.6-0.1-1.5-0.2-2.7-0.2H184.8z M184.8,8.8v21.5h4.1
		c2.1,0,3.8-0.2,5.1-0.5c1.3-0.3,2.5-0.9,3.6-1.7c1.1-0.8,2-2,2.7-3.5c0.7-1.5,1-3.4,1-5.5c0-2.3-0.4-4.2-1.2-5.7
		c-0.8-1.5-2-2.7-3.6-3.5s-3.7-1.2-6.4-1.2C187.9,8.6,186.2,8.7,184.8,8.8z"/>
	<path d="M241.7,34.1l-10-18.5c-1.2-2.2-2.1-3.8-2.7-4.8c-0.6-1-1.3-1.7-1.9-2.3c-0.6-0.6-1.3-1-2.2-1.2V5.5h15.4v1.8
		c-2.3,0.3-3.4,1.2-3.4,2.9c0,0.7,0.2,1.5,0.5,2.3c0.3,0.9,0.9,2.1,1.8,3.7l7.2,13.8l7.1-12.6c1-1.7,1.6-3.1,2-4.2
		c0.4-1.1,0.6-2.1,0.6-3c0-0.9-0.3-1.5-0.8-2c-0.5-0.5-1.3-0.8-2.3-0.9V5.5h13.7v1.8c-1,0.4-1.9,0.9-2.6,1.5
		c-0.7,0.6-1.5,1.5-2.3,2.6c-0.8,1.1-1.9,2.9-3.4,5.5l-10,17.1v11.7c0,1.4,0.1,2.5,0.2,3.3c0.1,0.8,0.4,1.5,0.7,2
		c0.3,0.5,0.8,0.9,1.3,1.2c0.6,0.3,1.4,0.6,2.6,0.8v1.8h-16.5V53c1.2-0.2,2-0.5,2.6-0.8c0.6-0.3,1-0.7,1.3-1.2
		c0.3-0.5,0.6-1.2,0.7-2c0.2-0.8,0.2-2,0.2-3.4V34.1z"/>
</g>
</svg>
