<?xml version="1.0" encoding="utf-8"?>
<!-- Generator: Adobe Illustrator 21.1.0, SVG Export Plug-In . SVG Version: 6.00 Build 0)  -->
<svg version="1.1" id="LOGO" xmlns="http://www.w3.org/2000/svg" xmlns:xlink="http://www.w3.org/1999/xlink" x="0px" y="0px"
	 viewBox="0 0 119.3 106.7" style="enable-background:new 0 0 119.3 106.7;" xml:space="preserve">
<style type="text/css">
	.st0{fill:#FFFFFF;}
</style>
<g>
	<path class="st0" d="M25.2,27.4c0,2,0,4.2,0,6.6c0,0.5,0,0.9,0,1.4c0,9,0,18.7,0,18.9c0,0.4,0.2,0.6,0.6,0.6c0.2,0,0.3,0,0.4-0.1
		s0.2-0.2,0.2-0.4c0,0,0-0.2,0-0.6c0-3.4,0-21.2,0-30.4c0-0.3,0-0.5,0-0.8c0-0.1,0-0.2,0.1-0.3c0.1-0.3,0.3-0.4,0.7-0.5
		c0,0,0.8,0,1.7,0l0,0c0.5,0,1,0,1.5,0c0.2,0,0.3,0,0.5,0c0.9,0,1.7,0,1.8,0c0.1,0,0.2,0,0.3,0.1c0.2,0.1,0.3,0.3,0.4,0.6
		c0,0.3,0,26.9,0.1,27.2c0,0.3,0.2,0.5,0.4,0.5c0.1,0,0.1,0,0.2,0c0.3,0,0.6-0.2,0.6-0.6c0,0,0,0,0-0.1s0-0.2,0-0.4
		c0-0.4,0-1.1,0-1.9c0-0.8,0-1.8,0-3c0-0.3,0-0.6,0-0.9c0-0.9,0-1.9,0-2.9c0-0.3,0-0.7,0-1c0-4.9,0-10.5,0-14.8c0-0.6,0-1.2,0-1.7
		c0-0.4,0-0.7,0.1-0.9c0.2-0.3,0.5-0.4,1.2-0.4c2.3,0,4.6,0,6.9,0l0,0l0,0c0.7,0,1.2-0.2,1.8-0.6c3.8-3.1,12.5-10.1,14.1-11.4
		C58.9,9.5,59,9.5,59,9.4c0.3-0.2,0.5-0.3,0.7-0.3s0.4,0.1,0.7,0.3c0.1,0.1,2.5,2,5.5,4.4c0.4,0.3,0.8,0.6,1.1,0.9
		c0.8,0.6,1.6,1.3,2.4,1.9c2,1.6,3.9,3.2,5.4,4.3c0.1,0.1,0.2,0.2,0.4,0.3c0.4,0.2,0.8,0.3,1.3,0.3c0.7,0,1.7,0,2.7,0
		c0.2,0,0.4,0,0.6,0c0.4,0,0.8,0,1.2,0c0.4,0,0.8,0,1.1,0c0.3,0,0.6,0,0.9,0l0,0c0.5,0,0.9,0,0.9,0l0,0c0.3,0,0.5,0.2,0.6,0.4
		c0,0,0.1,0.1,0.1,0.2s0,0.1,0.1,0.2c0,0.3,0,23.6,0,26.7c0,0.2,0,0.3,0,0.3c0,0.3,0.1,0.5,0.3,0.6c0.1,0,0.1,0,0.2,0.1
		c0,0,0,0,0.1,0l0,0l0,0c0.4,0,0.6-0.2,0.6-0.7c0-0.2,0-26.7,0-26.9c0-0.6,0.3-0.8,0.8-0.9c0.1,0,2.8,0,4.3,0l0,0c0.2,0,0.4,0,0.6,0
		c0.1,0,0.1,0,0.2,0h0.1c0.3,0,0.6,0.1,0.7,0.2s0.2,0.4,0.2,0.7c0,0,0,0.1,0,0.4c0,0.7,0,2.4,0,4.6c0,0.4,0,0.8,0,1.2
		c0,2.8,0,6.2,0,9.7c0,0.5,0,1,0,1.5c0,2.9,0,5.8,0,8.2c0,0.4,0,0.8,0,1.2c0,3,0,5,0,5c0.1,0.3,0.3,0.5,0.6,0.5l0,0l0,0
		c0.1,0,0.1,0,0.2,0s0.2-0.1,0.3-0.2c0-0.1,0.1-0.1,0.1-0.2c0-0.2,0-16,0.1-27.4c0-1.7,0-3.3,0-4.7l0,0c0-0.4,0-0.7,0-1
		c0-0.7-0.2-1.2-0.8-1.7c-2.3-1.7-4.5-3.4-6.8-5.1c-0.3-0.2-0.6-0.3-0.9-0.4c-0.2,0-0.5,0-0.7,0c-2.2,0-4.4,0-6.7,0
		c-0.1,0-0.3,0-0.4,0s-0.2,0-0.3-0.1c-0.1,0-0.2,0-0.3-0.1c-0.3-0.1-0.5-0.2-0.8-0.4c-0.9-0.7-2-1.6-3.2-2.6
		c-0.2-0.2-0.4-0.3-0.6-0.5c-0.4-0.3-0.8-0.7-1.3-1C71.2,9.1,71,9,70.8,8.8c-1.1-0.9-2.2-1.8-3.3-2.6c-0.6-0.5-1.3-1-1.9-1.5
		c-1.2-1-2.3-1.9-3.2-2.6c-0.4-0.4-0.8-0.7-1.2-0.9C61,1,60.8,0.9,60.6,0.7c-0.2-0.2-0.4-0.3-0.5-0.4C60,0.1,59.8,0,59.6,0
		S59.2,0.1,59,0.3c0,0-0.2,0.2-0.5,0.4c-0.2,0.1-0.4,0.3-0.6,0.5c-0.3,0.3-0.7,0.6-1.2,1C53.2,5,46.6,10.4,42.9,13.4
		c-0.6,0.5-1.2,0.7-2,0.7c-2.2,0-4.4,0-6.6,0l0,0l0,0c-0.7,0-1.2,0.2-1.8,0.6c-2.2,1.7-4.3,3.4-6.5,5c-0.6,0.4-0.8,0.9-0.8,1.6
		c0,0.8,0,2.2,0,4C25.2,25.9,25.2,26.6,25.2,27.4z M32.7,16.2c0.1,0,0.1,0,0.2,0c0.1,0,0.2,0.1,0.3,0.2c0,0.1,0.1,0.1,0.1,0.2
		s0.1,0.3,0.1,0.4c0,0.9,0,1.7,0,2.6c0,0.4-0.1,0.6-0.2,0.8s-0.4,0.2-0.8,0.2c0,0-2.1,0-3.2,0l0,0c-0.2,0-0.3,0-0.4,0s-0.2,0-0.2,0
		c-0.2,0-0.5,0-0.6-0.3s0.1-0.4,0.2-0.6c0,0,0.1,0,0.1-0.1c1.4-1.1,2.8-2.1,4.1-3.2C32.5,16.3,32.6,16.2,32.7,16.2z M34.7,18.5
		c0-0.8,0-1.5,0-2.3c0-0.5,0.2-0.8,0.5-0.9c0.1,0,0.3-0.1,0.4-0.1c0.2,0,0.7,0,1.3,0s1.2,0,1.6,0c0.3,0,0.4,0,0.5,0
		c0.3,0,0.6,0,0.7,0.3c0.1,0.2-0.1,0.4-0.2,0.6c0,0,0,0-0.1,0.1l-0.1,0.1c-0.6,0.5-2.7,2.2-3.4,2.7c-0.2,0.1-0.4,0.3-0.6,0.3
		c-0.1,0-0.2,0-0.2-0.1C34.7,19.2,34.7,18.8,34.7,18.5z M42,15.6c0.3-0.2,0.7-0.3,1-0.3c0.9,0,1.7,0,2.6,0l0,0c0.9,0,1.7,0,2.6,0
		c0.1,0,0.1,0,0.2,0l0,0c0.1,0,0.2,0,0.3,0.1c0.1,0,0.1,0.1,0.1,0.2c0.1,0.3-0.1,0.5-0.3,0.7c-1.6,1.3-3.2,2.6-4.8,3.9
		c-0.3,0.3-0.7,0.4-1.1,0.4c-0.1,0-0.3,0-0.4,0c-0.6,0-1.6,0-2.5,0l0,0c-0.3,0-0.5,0-0.8,0c-0.6,0-1.1,0-1.4,0c-0.2,0-0.5,0-0.6-0.1
		l0,0c-0.1,0-0.1-0.1-0.1-0.2c-0.1-0.3,0.1-0.5,0.3-0.6c0,0,0.1,0,0.1-0.1c0.7-0.6,1.4-1.1,2.1-1.7C40.3,17.1,41.1,16.3,42,15.6z
		 M70.3,15.8c-0.1-0.2,0.1-0.4,0.4-0.5c0.1,0,0.2,0,0.3,0c1.7,0,3.4,0,5.1,0c0.2,0,0.4,0,0.6,0.1s0.4,0.2,0.5,0.3
		c1.6,1.3,3.1,2.5,4.7,3.8c0.1,0.1,0.2,0.2,0.3,0.2l0.1,0.1c0.1,0.1,0.1,0.2,0,0.4c-0.1,0.4-0.5,0.3-0.8,0.3s-1,0-1.7,0
		c-0.8,0-1.6,0-2.3,0c-0.4,0-0.8,0-1,0c-0.4,0-0.7-0.1-1-0.3c-0.1-0.1-0.2-0.1-0.3-0.2c-0.6-0.5-1.2-0.9-1.7-1.4
		c-0.9-0.8-1.9-1.5-2.8-2.3c-0.1-0.1-0.2-0.2-0.3-0.3C70.4,16,70.4,15.9,70.3,15.8z M81.3,15.3c0.4,0,0.8,0,0.8,0l0,0
		c0.5,0,1.1,0,1.6,0c0.1,0,0.3,0,0.4,0.1c0.1,0,0.3,0.1,0.3,0.2c0.1,0.1,0.2,0.4,0.2,0.7c0,0.4,0,0.8,0,1.2c0,0.4,0,0.8,0,1.2
		c0,0.1,0,0.2-0.1,0.4c0,0.1-0.1,0.1-0.1,0.2c-0.1,0.1-0.2,0.2-0.3,0.2c-0.1,0-0.1,0-0.2,0c-0.2-0.1-0.3-0.2-0.5-0.3
		c-1.1-0.9-3.5-2.9-3.6-3c-0.2-0.3-0.1-0.5,0.2-0.6c0.2-0.1,0.4-0.1,0.7-0.1C80.8,15.3,81.1,15.3,81.3,15.3z M85.9,16.6
		c0.1-0.2,0.2-0.4,0.4-0.4c0.1,0,0.1,0,0.2,0c0.1,0.1,0.3,0.1,0.4,0.2s0.3,0.2,0.5,0.3c0.2,0.2,0.5,0.4,0.7,0.6
		c0.1,0.1,0.2,0.2,0.3,0.3c0.2,0.1,0.4,0.3,0.5,0.4c0.2,0.1,0.3,0.2,0.5,0.4c0.3,0.3,0.6,0.5,0.9,0.7c0.3,0.3,0.6,0.5,0.7,0.5
		c0,0,0,0,0.1,0c0.1,0.1,0.1,0.1,0.1,0.2s0,0.1,0,0.2s-0.2,0.2-0.4,0.3c-0.2,0-0.3,0-0.5,0c-0.4,0-1.4,0-2.3,0c-0.4,0-0.7,0-1,0
		c-0.1,0-0.2,0-0.3,0c-0.7,0-0.9-0.3-0.9-0.9c0-0.1,0-0.2,0-0.4C85.9,18.2,85.9,16.7,85.9,16.6z M60.6,2.1c4.3,3.5,8.7,7,13,10.5
		c0.2,0.2,0.4,0.4,0.6,0.6c0.2,0.3,0.1,0.5-0.2,0.6C73.8,14,73.6,14,73.4,14c-0.4,0-1.4,0-2.3,0l0,0c-1,0-1.9,0-2.3,0
		c-0.2,0-0.3,0-0.5,0c-0.5-0.1-0.9-0.3-1.3-0.6c-0.9-0.8-2.3-1.9-3.5-2.9c-0.1-0.1-0.1-0.1-0.2-0.2c-1.4-1.1-2.6-2.1-3-2.4l0,0h-0.1
		c-0.3-0.2-0.5-0.3-0.6-0.3c-0.2,0-0.4,0.1-0.6,0.3c-0.1,0.1-0.3,0.2-0.5,0.4c-0.1,0.1-0.2,0.2-0.4,0.3c-0.4,0.3-0.9,0.7-1.4,1.1
		c-0.2,0.1-0.3,0.3-0.5,0.4c-1.6,1.3-3.3,2.7-4,3.3c-0.5,0.5-1.1,0.7-1.9,0.7c-0.7,0-1.5,0-2.2,0s-1.5,0-2.2,0c-0.2,0-0.5,0-0.7-0.1
		c-0.1,0-0.2-0.1-0.2-0.1c-0.2-0.1-0.2-0.3,0-0.6c0.2-0.2,0.4-0.4,0.6-0.5c2.8-2.3,11.5-9.3,13.1-10.6c0.4-0.4,0.7-0.5,1-0.5
		c0.2,0,0.4,0.1,0.7,0.3C60.4,2,60.5,2.1,60.6,2.1z"/>
	<path class="st0" d="M17.7,70H0v5.1h1.6c0.2-0.8,0.4-1.4,0.7-1.9s0.5-0.9,0.8-1.2c0.3-0.3,0.6-0.5,0.9-0.6s0.8-0.1,1.3-0.1h2.1v15
		c0,0.6,0,1-0.1,1.3s-0.1,0.5-0.2,0.7s-0.2,0.3-0.4,0.4C6.4,88.9,6.2,89,6,89.1c-0.3,0.1-0.5,0.2-0.9,0.2V90h7.5v-0.7
		c-0.5-0.1-0.9-0.2-1.2-0.3s-0.4-0.3-0.6-0.5c-0.1-0.2-0.3-0.5-0.3-0.8c-0.1-0.3-0.1-0.8-0.1-1.4v-15h2.1c0.6,0,1,0.1,1.3,0.2
		s0.6,0.3,0.8,0.5c0.3,0.3,0.5,0.6,0.7,1.1s0.5,1.2,0.7,2h1.6V70H17.7z"/>
	<path class="st0" d="M39.7,70.9c-1.3-0.8-3-1.2-4.9-1.2c-1.8,0-3.4,0.4-4.8,1.2c-1.4,0.8-2.4,2-3.2,3.6c-0.7,1.6-1.1,3.4-1.1,5.6
		c0,1.8,0.2,3.3,0.6,4.6c0.4,1.3,1,2.3,1.8,3.1c0.8,0.8,1.7,1.4,2.8,1.8c1.1,0.4,2.3,0.6,3.6,0.6c1.9,0,3.5-0.4,4.9-1.2
		s2.5-2,3.2-3.5c0.8-1.6,1.1-3.5,1.1-5.8c0-2.1-0.3-4-1-5.5C42,72.8,41,71.6,39.7,70.9z M39.7,84.9c-0.4,1.3-1,2.3-1.9,3
		c-0.8,0.7-1.8,1-3,1c-1.9,0-3.3-0.8-4.3-2.4S29,82.6,29,79.6c0-1.3,0.1-2.5,0.3-3.6s0.5-2,1-2.8s1-1.3,1.7-1.8
		c0.7-0.4,1.5-0.6,2.5-0.6c1.1,0,2.1,0.3,2.9,1c0.8,0.6,1.5,1.7,2,3.1s0.7,3.2,0.7,5.3C40.3,82.1,40.1,83.6,39.7,84.9z"/>
	<path class="st0" d="M68.2,88.3c-0.4-0.3-0.9-0.9-1.5-1.7l-5.9-7.8l5.5-5.6c0.7-0.7,1.2-1.2,1.6-1.5s0.7-0.5,1-0.7s0.7-0.3,1-0.4
		V70h-7.1v0.7c0.4,0,0.8,0.1,1,0.3c0.3,0.2,0.4,0.5,0.4,0.9c0,0.3-0.1,0.5-0.2,0.8c-0.2,0.4-0.5,0.9-1,1.4c-0.4,0.5-1.1,1.2-2.1,2.3
		c-0.9,0.9-1.5,1.5-1.9,1.8s-0.8,0.5-1.2,0.7S57.1,79,56.7,79h-0.5v-5.4c0-0.7,0-1.2,0.1-1.5s0.2-0.6,0.3-0.7
		c0.1-0.2,0.3-0.3,0.5-0.4s0.6-0.2,1-0.3V70h-6.9v0.7c0.5,0.1,0.9,0.2,1.1,0.3s0.4,0.2,0.5,0.4s0.2,0.4,0.3,0.7
		c0.1,0.3,0.1,0.8,0.1,1.5v12.7c0,0.7,0,1.3-0.1,1.6c-0.1,0.4-0.2,0.6-0.4,0.8c-0.2,0.2-0.7,0.4-1.4,0.5V90h6.9v-0.7
		c-0.5-0.1-0.9-0.2-1.1-0.4s-0.4-0.3-0.5-0.4s-0.2-0.4-0.2-0.7c0-0.3-0.1-0.8-0.1-1.4v-6.2h0.9c0.4,0,0.7,0,1,0.1s0.5,0.2,0.7,0.4
		s0.5,0.6,1,1.2l3.8,5.1c0.3,0.4,0.5,0.7,0.6,0.9c0.1,0.2,0.2,0.5,0.2,0.6c0,0.2-0.1,0.4-0.3,0.5c-0.2,0.1-0.5,0.2-0.9,0.2V90h7.2
		v-0.7c-0.4,0-0.7-0.1-1-0.3C68.9,88.8,68.6,88.6,68.2,88.3z"/>
	<path class="st0" d="M89.7,70.7c0.5,0,0.8,0.2,1,0.4c0.2,0.2,0.4,0.5,0.4,0.8c0,0.4-0.1,0.8-0.3,1.2c-0.2,0.4-0.5,1-0.9,1.7
		l-3.2,5.1l-3.3-5.6c-0.4-0.6-0.6-1.1-0.8-1.5c-0.1-0.4-0.2-0.7-0.2-1c0-0.7,0.5-1.1,1.5-1.2V70h-7v0.7c0.4,0.1,0.7,0.3,1,0.5
		s0.6,0.5,0.8,0.9c0.3,0.4,0.7,1,1.2,2l4.5,7.5v4.7c0,0.6,0,1-0.1,1.4c-0.1,0.3-0.2,0.6-0.3,0.8c-0.2,0.2-0.4,0.4-0.6,0.5
		c-0.3,0.1-0.6,0.2-1.2,0.3V90h7.5v-0.7c-0.5-0.1-0.9-0.2-1.2-0.3c-0.3-0.1-0.5-0.3-0.6-0.5c-0.2-0.2-0.3-0.5-0.3-0.8
		c-0.1-0.3-0.1-0.8-0.1-1.4v-4.8l4.5-7c0.7-1,1.2-1.8,1.5-2.2c0.3-0.4,0.7-0.8,1-1.1c0.3-0.3,0.7-0.5,1.2-0.6V70h-6.2v0.7H89.7z"/>
	<path class="st0" d="M118.2,85.5c0.8-1.6,1.1-3.5,1.1-5.8c0-2.1-0.3-4-1-5.5s-1.7-2.6-3-3.4s-3-1.2-4.9-1.2c-1.8,0-3.4,0.4-4.8,1.2
		c-1.4,0.8-2.4,2-3.2,3.6s-1.1,3.4-1.1,5.6c0,1.8,0.2,3.3,0.6,4.6c0.4,1.3,1,2.3,1.8,3.1c0.8,0.8,1.7,1.4,2.8,1.8
		c1.1,0.4,2.3,0.6,3.6,0.6c1.9,0,3.5-0.4,4.9-1.2S117.4,87.1,118.2,85.5z M113.5,87.9c-0.8,0.7-1.8,1-3,1c-1.9,0-3.3-0.8-4.3-2.4
		s-1.5-3.9-1.5-6.9c0-1.3,0.1-2.5,0.3-3.6c0.2-1.1,0.5-2,1-2.8s1-1.3,1.7-1.8c0.7-0.4,1.5-0.6,2.5-0.6c1.1,0,2.1,0.3,2.9,1
		c0.8,0.6,1.5,1.7,2,3.1s0.7,3.2,0.7,5.3c0,1.8-0.2,3.3-0.6,4.6C114.9,86.2,114.3,87.2,113.5,87.9z"/>
	<path class="st0" d="M5.5,101.7c0-1.3-1-1.8-2.7-1.8H0.6v6.7h1v-2.9h1.2l2,2.9H6l-2.1-3.1C4.8,103.2,5.5,102.5,5.5,101.7z
		 M2.8,102.9H1.6v-2.3h1.2c1,0,1.7,0.3,1.7,1.1C4.5,102.5,3.8,102.9,2.8,102.9z"/>
	<polygon class="st0" points="9.9,103.5 12.8,103.5 12.8,102.7 9.9,102.7 9.9,100.6 13.2,100.6 13.2,99.8 8.9,99.8 8.9,106.6 
		13.2,106.6 13.2,105.8 9.9,105.8 	"/>
	<path class="st0" d="M17.5,101.5c0-0.8,0.6-1,1.4-1c0.5,0,1.1,0.1,1.6,0.3V100c-0.5-0.2-1.1-0.2-1.6-0.2c-1.3,0-2.4,0.5-2.4,1.8
		c0,2.4,3.4,1.6,3.4,3.3c0,0.8-0.6,1.1-1.4,1.1c-0.6,0-1.4-0.2-2-0.5v0.8c0.6,0.3,1.4,0.4,2,0.4c1.3,0,2.5-0.5,2.5-1.9
		C20.9,102.4,17.5,103.3,17.5,101.5z"/>
	<polygon class="st0" points="23.3,100.6 25.6,100.6 25.6,106.6 26.6,106.6 26.6,100.6 28.9,100.6 28.9,99.8 23.3,99.8 	"/>
	<path class="st0" d="M32.6,99.8l-2.7,6.7h1l0.7-1.8h3.1l0.7,1.8h1.1l-2.7-6.7H32.6z M31.8,104l1.3-3.3l0,0l1.3,3.3H31.8z"/>
	<path class="st0" d="M43.6,104.3c0,1.1-0.6,1.6-1.9,1.6c-1.2,0-1.9-0.5-1.9-1.6v-4.5h-1v4.4c0,1.7,1.1,2.5,2.8,2.5
		c1.8,0,2.9-0.8,2.9-2.5v-4.4h-1v4.5H43.6z"/>
	<path class="st0" d="M52.5,101.7c0-1.3-1-1.8-2.7-1.8h-2.2v6.7h1v-2.9h1.2l2,2.9h1.1l-2.1-3.1C51.8,103.2,52.5,102.5,52.5,101.7z
		 M49.8,102.9h-1.2v-2.3h1.2c1,0,1.7,0.3,1.7,1.1C51.4,102.5,50.8,102.9,49.8,102.9z"/>
	<path class="st0" d="M57.8,99.8l-2.7,6.7h1l0.7-1.8H60l0.7,1.8h1.1L59,99.8H57.8z M57,104l1.3-3.3l0,0l1.3,3.3H57z"/>
	<polygon class="st0" points="69.2,105 69.2,105 65.5,99.8 64.4,99.8 64.4,106.6 65.4,106.6 65.4,101.2 65.4,101.2 69.3,106.6 
		70.2,106.6 70.2,99.8 69.2,99.8 	"/>
	<polygon class="st0" points="73,100.6 75.3,100.6 75.3,106.6 76.3,106.6 76.3,100.6 78.6,100.6 78.6,99.8 73,99.8 	"/>
	<polygon class="st0" points="92.1,105.4 92.1,105.4 90.5,99.8 89.5,99.8 87.8,105.4 87.8,105.4 86.4,99.8 85.4,99.8 87.1,106.6 
		88.3,106.6 89.9,101.3 89.9,101.3 91.5,106.6 92.7,106.6 94.5,99.8 93.5,99.8 	"/>
	<polygon class="st0" points="98.5,103.5 101.4,103.5 101.4,102.7 98.5,102.7 98.5,100.6 101.8,100.6 101.8,99.8 97.5,99.8 
		97.5,106.6 101.8,106.6 101.8,105.8 98.5,105.8 	"/>
	<polygon class="st0" points="106.2,103.5 109.1,103.5 109.1,102.7 106.2,102.7 106.2,100.6 109.6,100.6 109.6,99.8 105.2,99.8 
		105.2,106.6 109.6,106.6 109.6,105.8 106.2,105.8 	"/>
	<polygon class="st0" points="118.6,99.8 117.5,99.8 114,103.3 114,99.8 113,99.8 113,106.6 114,106.6 114,104.3 114.9,103.4 
		117.6,106.6 118.8,106.6 115.6,102.8 	"/>
</g>
</svg>
