<?xml version="1.0" encoding="utf-8"?>
<!-- Generator: Adobe Illustrator 21.1.0, SVG Export Plug-In . SVG Version: 6.00 Build 0)  -->
<svg version="1.1" id="レイヤー_1" xmlns="http://www.w3.org/2000/svg" xmlns:xlink="http://www.w3.org/1999/xlink" x="0px"
	 y="0px" viewBox="0 0 201.3 54.9" style="enable-background:new 0 0 201.3 54.9;" xml:space="preserve">
<style type="text/css">
	.st0{fill:#FFFFFF;}
</style>
<g>
	<path class="st0" d="M68,19.6c-2.3-1.7-4.5-3.4-6.8-5.1c-0.5-0.4-1-0.5-1.6-0.5c-2.2,0-4.4,0-6.7,0c-0.7,0-1.2-0.2-1.8-0.6
		C46.5,9.6,35.7,0.8,35,0.3c-0.5-0.4-0.7-0.4-1.2,0c-0.1,0.1-10.9,8.8-16.1,13c-0.6,0.5-1.2,0.7-2,0.7c-2.2,0-4.4,0-6.6,0
		c-0.7,0-1.2,0.2-1.8,0.6c-2.2,1.7-4.3,3.4-6.5,5C0.2,20,0,20.5,0,21.2c0,5.4,0,32.8,0,33c0,0.4,0.2,0.6,0.6,0.6s0.6-0.2,0.6-0.6
		c0-0.2,0-20.9,0-30.9c0-0.3,0-0.5,0-0.8C1.3,22,1.5,21.8,2,21.7c0.1,0,5.3,0,5.4,0C7.8,21.8,8,22,8,22.4c0,0.3,0,26.9,0.1,27.2
		c0,0.4,0.3,0.6,0.6,0.6s0.6-0.2,0.6-0.6c0-0.2,0-18,0-26.7c0-1.1,0.2-1.3,1.3-1.3c2.3,0,4.6,0,6.9,0c0.7,0,1.2-0.2,1.8-0.6
		c4.1-3.3,13.6-11,14.3-11.6C34.2,9,34.5,9,35,9.4c0.2,0.1,9.7,7.9,14.4,11.6c0.5,0.4,1,0.6,1.7,0.6c2.3,0,7.3,0,7.5,0
		c0.5,0.1,0.7,0.3,0.7,0.7c0,0.3,0,26.9,0,27c0,0.5,0.2,0.7,0.6,0.7c0.4,0,0.6-0.2,0.6-0.7c0-0.2,0-26.7,0-26.9
		c0-0.6,0.3-0.8,0.8-0.9c0.2,0,4.9,0,5.1,0c0.7,0,0.9,0.3,0.9,0.9c0,0.2,0,31.4,0.1,31.7s0.3,0.5,0.6,0.5c0.3,0,0.5-0.2,0.6-0.5
		c0-0.2,0.1-22.3,0.1-33.1C68.8,20.5,68.6,20,68,19.6z M7.1,20.5c0,0-3.7,0-3.8,0c-0.2,0-0.5,0-0.6-0.3c-0.1-0.3,0.1-0.5,0.3-0.6
		c1.4-1.1,2.8-2.1,4.1-3.2c0.1-0.1,0.2-0.1,0.4-0.2c0.3-0.1,0.5,0,0.6,0.3c0,0.1,0.1,0.3,0.1,0.4c0,0.9,0,1.7,0,2.6
		C8.1,20.2,7.9,20.5,7.1,20.5z M10.6,19.1c-0.2,0.2-0.5,0.4-0.8,0.3c-0.3-0.2-0.3-0.5-0.3-0.8c0-0.8,0-1.5,0-2.3c0-0.7,0.3-1,1-1
		c0.5,0,3.2,0,3.3,0c0.3,0,0.6,0,0.7,0.3c0.1,0.3-0.1,0.5-0.3,0.6C13.6,16.6,11.3,18.5,10.6,19.1z M23.4,16.3
		c-1.6,1.3-3.2,2.6-4.8,3.9c-0.3,0.3-0.7,0.4-1.1,0.4c-0.8,0-4.2,0-5.1,0c-0.3,0-0.6,0-0.8-0.3c-0.1-0.3,0.2-0.5,0.4-0.7
		c1.6-1.3,3.2-2.6,4.8-3.8c0.3-0.2,0.7-0.3,1-0.3c1.7,0,3.5,0,5.2,0c0.3,0,0.6,0,0.7,0.3C23.8,15.9,23.6,16.1,23.4,16.3z M41.8,13.4
		C39.6,11.6,35.1,8,35,7.9c-0.5-0.4-0.8-0.4-1.3,0c-1,0.8-5.5,4.4-6.8,5.5c-0.5,0.5-1.1,0.7-1.9,0.7c-1.5,0-2.9,0-4.4,0
		c-0.2,0-0.5,0-0.7-0.1c-0.4-0.1-0.5-0.4-0.2-0.7c0.2-0.2,0.4-0.4,0.6-0.5c2.8-2.3,11.5-9.3,13.1-10.6c0.9-0.7,1.1-0.7,1.9,0
		c4.3,3.5,8.7,7,13,10.5c0.2,0.2,0.4,0.4,0.6,0.6c0.2,0.3,0.1,0.5-0.2,0.6C48.6,14,48.4,14,48.2,14c-0.8,0-3.9,0-4.6,0
		C42.9,14,42.3,13.8,41.8,13.4z M57.2,20.2c-0.1,0.4-0.5,0.3-0.8,0.3c-0.8,0-4.2,0-5,0c-0.5,0-0.9-0.1-1.2-0.4
		c-1.5-1.2-3-2.5-4.6-3.7c-0.1-0.1-0.2-0.2-0.3-0.3c-0.3-0.4-0.2-0.6,0.3-0.7c0.1,0,0.2,0,0.3,0c1.7,0,3.4,0,5.1,0
		c0.4,0,0.8,0.1,1.1,0.4c1.6,1.3,3.1,2.5,4.7,3.8C57,19.6,57.3,19.8,57.2,20.2z M59.4,18.6c0,0.1,0,0.2-0.1,0.4
		c-0.1,0.3-0.3,0.4-0.6,0.3c-0.2-0.1-0.3-0.2-0.5-0.3c-1.1-0.9-3.5-2.9-3.6-3c-0.2-0.3-0.1-0.5,0.2-0.6c0.2-0.1,0.4-0.1,0.7-0.1
		c0.5,0,1.4,0,1.4,0c0.5,0,1.1,0,1.6,0c0.7,0,0.9,0.3,0.9,0.9C59.4,17,59.4,17.8,59.4,18.6z M65.7,20.4c-0.2,0-0.3,0-0.5,0
		c-0.6,0-3,0-3.6,0c-0.7,0-0.9-0.3-0.9-0.9c0-0.8,0-2.8,0-2.9c0.1-0.3,0.3-0.5,0.6-0.3c0.1,0.1,0.3,0.1,0.4,0.2
		c1.3,1,4.1,3.1,4.2,3.2C66.2,20,66.1,20.4,65.7,20.4z"/>
	<path class="st0" d="M99.6,16.7H82v5.1h1.6c0.2-0.8,0.4-1.4,0.7-1.9c0.2-0.5,0.5-0.9,0.8-1.2c0.3-0.3,0.6-0.5,0.9-0.6
		s0.8-0.1,1.3-0.1h2.1v15c0,0.6,0,1-0.1,1.3s-0.1,0.5-0.2,0.7s-0.2,0.3-0.4,0.4c-0.2,0.1-0.4,0.2-0.6,0.3c-0.3,0.1-0.5,0.2-0.9,0.2
		v0.7h7.5v-0.7c-0.5-0.1-0.9-0.2-1.2-0.3c-0.3-0.1-0.4-0.3-0.6-0.5c-0.1-0.2-0.3-0.5-0.3-0.8c-0.1-0.3-0.1-0.8-0.1-1.4V18h2.1
		c0.6,0,1,0.1,1.3,0.2s0.6,0.3,0.8,0.5c0.3,0.3,0.5,0.6,0.7,1.1s0.5,1.2,0.7,2h1.6v-5.1H99.6z"/>
	<path class="st0" d="M110.1,34.6c0.8,0.8,1.7,1.4,2.8,1.8c1.1,0.4,2.3,0.6,3.6,0.6c1.9,0,3.5-0.4,4.9-1.2s2.5-2,3.2-3.5
		c0.8-1.6,1.1-3.5,1.1-5.8c0-2.1-0.3-4-1-5.5s-1.7-2.6-3-3.4s-3-1.2-4.9-1.2c-1.8,0-3.4,0.4-4.8,1.2c-1.4,0.8-2.4,2-3.2,3.6
		c-0.7,1.6-1.1,3.4-1.1,5.6c0,1.8,0.2,3.3,0.6,4.6C108.7,32.8,109.3,33.8,110.1,34.6z M111.4,22.9c0.2-1.1,0.5-2,1-2.8
		s1-1.3,1.7-1.8c0.7-0.4,1.5-0.6,2.5-0.6c1.1,0,2.1,0.3,2.9,1c0.8,0.6,1.5,1.7,2,3.1s0.7,3.2,0.7,5.3c0,1.8-0.2,3.3-0.6,4.6
		s-1,2.3-1.9,3c-0.8,0.7-1.8,1-3,1c-1.9,0-3.3-0.8-4.3-2.4c-1-1.6-1.5-3.9-1.5-6.9C111,25.2,111.1,24,111.4,22.9z"/>
	<path class="st0" d="M150.2,35c-0.4-0.3-0.9-0.9-1.5-1.7l-5.9-7.8l5.5-5.6c0.7-0.7,1.2-1.2,1.6-1.5s0.7-0.5,1-0.7s0.7-0.3,1-0.4
		v-0.7h-7.1v0.7c0.4,0,0.8,0.1,1,0.3c0.3,0.2,0.4,0.5,0.4,0.9c0,0.3-0.1,0.5-0.2,0.8c-0.2,0.4-0.5,0.9-1,1.4
		c-0.4,0.5-1.1,1.2-2.1,2.3c-0.9,0.9-1.5,1.5-1.9,1.8s-0.8,0.5-1.2,0.7c-0.3,0.1-0.7,0.2-1.1,0.2h-0.5v-5.4c0-0.7,0-1.2,0.1-1.5
		s0.2-0.6,0.3-0.7c0.1-0.2,0.3-0.3,0.5-0.4s0.6-0.2,1-0.3v-0.7h-6.9v0.7c0.5,0.1,0.9,0.2,1.1,0.3s0.4,0.2,0.5,0.4s0.2,0.4,0.3,0.7
		c0.1,0.3,0.1,0.8,0.1,1.5V33c0,0.7,0,1.3-0.1,1.6c-0.1,0.4-0.2,0.6-0.4,0.8s-0.7,0.4-1.4,0.5v0.7h6.9v-0.7
		c-0.5-0.1-0.9-0.2-1.1-0.4s-0.4-0.3-0.5-0.4c-0.1-0.2-0.2-0.4-0.2-0.7s-0.1-0.8-0.1-1.4v-6h0.9c0.4,0,0.7,0,1,0.1s0.5,0.2,0.7,0.4
		s0.5,0.6,1,1.2l3.8,5.1c0.3,0.4,0.5,0.7,0.6,0.9s0.2,0.5,0.2,0.6c0,0.2-0.1,0.4-0.3,0.5s-0.5,0.2-0.9,0.2v0.7h7.2V36
		c-0.4,0-0.7-0.1-1-0.3C150.9,35.6,150.6,35.4,150.2,35z"/>
	<path class="st0" d="M171.6,17.5c0.5,0,0.8,0.2,1,0.4c0.2,0.2,0.4,0.5,0.4,0.8c0,0.4-0.1,0.8-0.3,1.2s-0.5,1-0.9,1.7l-3.2,5.1
		l-3.3-5.6c-0.4-0.6-0.6-1.1-0.8-1.5c-0.1-0.4-0.2-0.7-0.2-1c0-0.7,0.5-1.1,1.5-1.2v-0.7h-7v0.7c0.4,0.1,0.7,0.3,1,0.5
		s0.6,0.5,0.8,0.9c0.3,0.4,0.7,1,1.2,2l4.5,7.5V33c0,0.6,0,1-0.1,1.4s-0.2,0.6-0.3,0.8c-0.2,0.2-0.4,0.4-0.6,0.5
		c-0.3,0.1-0.6,0.2-1.2,0.3v0.7h7.5V36c-0.5-0.1-0.9-0.2-1.2-0.3s-0.5-0.3-0.6-0.5c-0.2-0.2-0.3-0.5-0.3-0.8
		c-0.1-0.3-0.1-0.8-0.1-1.4v-4.8l4.5-7c0.7-1,1.2-1.8,1.5-2.2c0.3-0.4,0.7-0.8,1-1.1c0.3-0.3,0.7-0.5,1.2-0.6v-0.7h-6.2v0.9H171.6z"
		/>
	<path class="st0" d="M200.1,32.3c0.8-1.6,1.1-3.5,1.1-5.8c0-2.1-0.3-4-1-5.5s-1.7-2.6-3-3.4s-3-1.2-4.9-1.2c-1.8,0-3.4,0.4-4.8,1.2
		c-1.4,0.8-2.4,2-3.2,3.6c-0.7,1.6-1.1,3.4-1.1,5.6c0,1.8,0.2,3.3,0.6,4.6c0.4,1.3,1,2.3,1.8,3.1s1.7,1.4,2.8,1.8
		c1.1,0.4,2.3,0.6,3.6,0.6c1.9,0,3.5-0.4,4.9-1.2C198.3,35.1,199.4,33.9,200.1,32.3z M195.4,34.7c-0.8,0.7-1.8,1-3,1
		c-1.9,0-3.3-0.8-4.3-2.4c-1-1.6-1.5-3.9-1.5-6.9c0-1.3,0.1-2.5,0.3-3.6s0.5-2,1-2.8s1-1.3,1.7-1.8s1.5-0.6,2.5-0.6
		c1.1,0,2.1,0.3,2.9,1c0.8,0.6,1.5,1.7,2,3.1s0.7,3.2,0.7,5.3c0,1.8-0.2,3.3-0.6,4.6C196.9,33,196.3,34,195.4,34.7z"/>
	<path class="st0" d="M87.5,48.5c0-1.3-1-1.8-2.7-1.8h-2.2v6.7h1v-2.9h1.2l2,2.9H88l-2.1-3.1C86.8,50,87.5,49.3,87.5,48.5z
		 M84.8,49.7h-1.2v-2.3h1.2c1,0,1.7,0.3,1.7,1.1S85.8,49.7,84.8,49.7z"/>
	<polygon class="st0" points="91.8,50.3 94.8,50.3 94.8,49.5 91.8,49.5 91.8,47.4 95.2,47.4 95.2,46.6 90.8,46.6 90.8,53.4 
		95.2,53.4 95.2,52.6 91.8,52.6 	"/>
	<path class="st0" d="M99.5,48.3c0-0.8,0.6-1,1.4-1c0.5,0,1.1,0.1,1.6,0.3v-0.8c-0.5-0.2-1.1-0.2-1.6-0.2c-1.3,0-2.4,0.5-2.4,1.8
		c0,2.4,3.4,1.6,3.4,3.3c0,0.8-0.6,1.1-1.4,1.1c-0.6,0-1.4-0.2-2-0.5v0.8c0.6,0.3,1.4,0.4,2,0.4c1.3,0,2.5-0.5,2.5-1.9
		C102.9,49.1,99.5,50,99.5,48.3z"/>
	<polygon class="st0" points="105.3,47.4 107.6,47.4 107.6,53.4 108.6,53.4 108.6,47.4 110.9,47.4 110.9,46.6 105.3,46.6 	"/>
	<path class="st0" d="M114.6,46.6l-2.7,6.7h1l0.7-1.8h3.1l0.7,1.8h1.1l-2.7-6.7H114.6z M113.8,50.8l1.3-3.3l0,0l1.3,3.3H113.8z"/>
	<path class="st0" d="M125.6,51.1c0,1.1-0.6,1.6-1.9,1.6c-1.2,0-1.9-0.5-1.9-1.6v-4.5h-1V51c0,1.7,1.1,2.5,2.8,2.5
		c1.8,0,2.9-0.8,2.9-2.5v-4.4h-1L125.6,51.1L125.6,51.1z"/>
	<path class="st0" d="M134.4,48.5c0-1.3-1-1.8-2.7-1.8h-2.2v6.7h1v-2.9h1.2l2,2.9h1.1l-2.1-3.1C133.7,50,134.4,49.3,134.4,48.5z
		 M131.7,49.7h-1.2v-2.3h1.2c1,0,1.7,0.3,1.7,1.1S132.8,49.7,131.7,49.7z"/>
	<path class="st0" d="M139.8,46.6l-2.7,6.7h1l0.7-1.8h3.1l0.7,1.8h1.1l-2.7-6.7H139.8z M139,50.8l1.3-3.3l0,0l1.3,3.3H139z"/>
	<polygon class="st0" points="151.2,51.8 151.2,51.8 147.4,46.6 146.4,46.6 146.4,53.4 147.4,53.4 147.4,48 147.4,48 151.3,53.4 
		152.2,53.4 152.2,46.6 151.2,46.6 	"/>
	<polygon class="st0" points="155,47.4 157.3,47.4 157.3,53.4 158.3,53.4 158.3,47.4 160.5,47.4 160.5,46.6 155,46.6 	"/>
	<polygon class="st0" points="174.1,52.2 174.1,52.2 172.4,46.6 171.5,46.6 169.8,52.2 169.8,52.2 168.4,46.6 167.3,46.6 
		169.1,53.4 170.3,53.4 171.9,48.1 171.9,48.1 173.5,53.4 174.7,53.4 176.4,46.6 175.5,46.6 	"/>
	<polygon class="st0" points="180.4,50.3 183.4,50.3 183.4,49.5 180.4,49.5 180.4,47.4 183.8,47.4 183.8,46.6 179.4,46.6 
		179.4,53.4 183.8,53.4 183.8,52.6 180.4,52.6 	"/>
	<polygon class="st0" points="188.2,50.3 191.1,50.3 191.1,49.5 188.2,49.5 188.2,47.4 191.5,47.4 191.5,46.6 187.2,46.6 
		187.2,53.4 191.6,53.4 191.6,52.6 188.2,52.6 	"/>
	<polygon class="st0" points="200.6,46.6 199.5,46.6 195.9,50.1 195.9,46.6 194.9,46.6 194.9,53.4 195.9,53.4 195.9,51.1 
		196.9,50.2 199.6,53.4 200.8,53.4 197.6,49.6 	"/>
</g>
</svg>
